<svg width="864" height="158" viewBox="0 0 864 158" fill="none" xmlns="http://www.w3.org/2000/svg">
<path fill-rule="evenodd" clip-rule="evenodd" d="M82.9704 1.56561C50.6994 6.58061 22.7814 23.5636 8.89141 46.6306C-2.62459 65.7536 -2.97859 89.9756 7.97241 109.479C21.6954 133.918 49.8394 151.32 83.9574 156.463C147.598 166.054 207.642 128.439 207.642 78.9786C207.642 55.7196 194.738 34.2536 171.747 19.2676C147.243 3.29461 114.22 -3.28939 82.9704 1.56561ZM128.079 16.3486C156.758 22.5996 179.535 38.3176 189.985 59.0686C201.647 82.2256 197.346 106.664 178.131 126.412L170.282 134.479L175.242 128.14C187.114 112.97 190.938 97.2016 186.9 80.0716C182.449 61.1866 165.011 43.7496 143.44 36.6126C129.488 31.9956 120.986 30.7026 104.44 30.6776C80.2034 30.6426 62.0094 35.1706 47.1534 44.9356C28.7984 57.0016 19.3304 73.3306 19.2984 92.9786C19.2754 106.838 23.9794 118.618 34.0764 129.985L38.9404 135.461L34.4404 131.697C23.9854 122.952 16.0984 110.614 12.8454 97.9126C10.5984 89.1436 11.3294 73.6986 14.3654 65.7716C19.0174 53.6296 29.8834 40.1996 41.4404 32.3116C53.6944 23.9476 71.8054 17.0726 86.9404 15.0406C96.6004 13.7426 119.461 14.4696 128.079 16.3486ZM264.646 56.2146V63.9786H275.94L286.972 64V93.2527V122L296 122.056L305.075 122V93.9786C305.149 78.8536 305 64 305 64C305 64 308.472 63.9626 316 64H326.94V56.4786V49.4786L295.646 49.2146H264.646V56.2146ZM553.473 48.9956C553.473 48.9956 552.973 94.4626 553.092 111.323V121.979H568.198C588.922 121.979 598.224 119.248 606.838 110.634C609.152 108.32 611.972 103.963 613.492 101.453C615.973 96.5656 615.975 94.1166 615.972 84.4626C615.966 71.8796 614.473 68.3432 607.434 61.0916C598.635 52.0256 588.781 49.0236 567.725 48.9956C555.674 48.9806 553.473 48.9956 553.473 48.9956ZM78.6574 57.7286C81.8004 61.3326 82.7034 64.9506 90.5124 105.235C99.2154 150.135 99.7844 152.493 102.265 153.941C104.89 155.473 93.9014 155.225 85.1754 153.555C58.9974 148.547 40.7084 133.313 36.3224 112.866C32.2574 93.9096 46.2664 71.4316 69.8894 59.0056C76.6284 55.4606 76.6724 55.4536 78.6574 57.7286ZM137.816 59.0846C159.819 70.2436 174.283 92.0736 171.965 110.625C170.455 122.711 159.559 137.759 147.197 144.832C136.97 150.683 121.351 154.979 110.303 154.979C104.981 154.979 104.467 154.809 105.788 153.488C108.129 151.147 108.9 147.897 116.937 106.479C121.099 85.0286 125.409 60.7596 125.972 59.0056C126.974 55.8906 130.038 55.9786 131.139 55.9786C131.443 55.9786 134.448 57.3766 137.816 59.0846ZM350.243 65.3156C341.247 67.8566 333.779 74.5666 330.867 82.7266C329.032 87.8676 329.088 99.2016 330.971 103.707C331.813 105.723 333.649 108.875 335.051 110.713C343.319 121.553 362.873 125.191 376.148 118.358C384.42 114.101 384.79 112.93 379.552 107.593L375.203 103.161L370.672 105.57C362.928 109.688 353.214 108.321 348.608 102.465C347.416 100.949 346.44 99.3286 346.44 98.8646C346.44 98.3996 355.553 97.8986 366.69 97.7496L386.94 97.4786L387.249 92.0276C387.444 88.6006 386.922 84.9096 385.843 82.0866C383.622 76.2696 377.066 69.1706 371.716 66.7886C366.168 64.3186 356.196 63.6346 350.243 65.3156ZM500.941 65.4026C494.776 66.9486 488.904 69.4206 488.027 70.8386C487.665 71.4246 488.541 74.2146 489.972 77.0406C492.763 82.5466 492.405 82.4556 499.941 79.5886C505.031 77.6516 512.739 77.5646 516.295 79.4036C519.234 80.9236 522.064 85.7846 520.738 87.0346C520.299 87.4476 514.991 87.9516 508.941 88.1526C499.513 88.4666 497.298 88.8746 493.441 91.0046C483.925 96.2596 482.515 109.123 490.624 116.695C497.488 123.104 511.251 123.632 519.618 117.809C522.278 115.958 522.299 115.96 522.618 118.212C522.914 120.296 523.805 122.066 530.482 122.066C537.319 122.066 537.482 121.066 538.008 118.564C538.353 117.188 538.467 108.057 538.261 98.2706C537.841 78.3546 536.791 74.6366 530.16 69.5786C523.674 64.6316 511.153 62.8416 500.941 65.4026ZM584.717 65.0386C589.182 66.2786 594.896 71.0296 597.151 75.3766C599.386 79.6856 599.37 91.4556 597.123 95.6996C593.241 103.036 586.184 106.924 576.69 106.957L570.44 106.979V85.4786V63.9786L575.69 63.9846C578.578 63.9876 582.64 64.4616 584.717 65.0386ZM687.521 65.5076C677.312 68.3646 672.044 73.0756 668.518 82.5006C662.314 99.0826 670.052 114.726 687.281 120.432C698.431 124.124 714.28 119.832 721.433 111.184C727.052 104.39 729.067 91.8386 725.953 83.0136C721.011 69.0056 703.507 61.0326 687.521 65.5076ZM824.73 65.7896C817.11 68.2586 811.402 72.7636 807.941 79.0396C805.483 84.0656 805.483 85.5656 804.941 92.9786C805.483 100.897 805.483 101.566 808.045 106.952C815.827 120.671 835.86 126.047 850.925 118.458C859.057 114.362 859.188 112.629 854.982 107.566C853.104 105.306 852.983 103.595 850.925 103.566C849.483 103.545 847.597 104.879 845.441 105.979C838.234 109.655 828.131 108.063 823.959 102.593C822.574 100.776 821.441 98.9946 821.441 98.6346C821.441 98.2736 830.635 97.9786 841.873 97.9786C865.148 97.9786 864.28 98.3426 862.982 89.1296C861.95 81.7996 857.883 74.4086 852.706 70.4556C844.528 64.2116 834.672 62.5676 824.73 65.7896ZM423.012 66.4436C420.852 67.2256 417.844 68.7826 416.327 69.9036L413.256 71.9786L413.255 69.2106C413.256 65.8689 414.472 66.5656 405.44 66.4786H397.94V93.9786L397.94 122.06L405.982 122.066L414.44 122.06V106.421C414.44 89.0716 415.286 85.6826 420.361 82.6846C421.95 81.7466 424.754 80.9716 426.594 80.9636C432.011 80.9386 432.574 80.0856 432.24 72.3886C431.956 65.8356 431.811 65.4666 429.44 65.2506C428.065 65.1246 425.173 65.6616 423.012 66.4436ZM469.441 66.1326C467.516 66.6906 464.508 68.2346 462.757 69.5636L459.574 71.9786L459.482 69.0656C459.482 64.5656 460.482 66.5656 450.982 66.0656L443.44 65.8946V93.9766V122.06L451.482 122.066H460.441L460.441 104.566C460.766 93.8546 461.39 87.6926 462.221 86.2386C463.89 83.3166 468.501 80.9826 472.641 80.9636C478.008 80.9386 478.573 80.0736 478.24 72.3886C477.956 65.8206 477.817 65.4696 475.441 65.2976C474.066 65.1976 471.366 65.5736 469.441 66.1326ZM652.583 66.4496C650.187 67.2096 647.184 68.8106 645.91 70.0076L643.593 72.1836L643.594 69.0656V66.4786H635.44H627.409L627.674 94.2696L627.408 122.06H635.482H644.441L644.44 104.979C644.44 94.2696 644.151 87.5196 644.982 86.0656C646.651 83.1436 652.5 80.9826 656.64 80.9636C662.007 80.9386 662.572 80.0736 662.239 72.3886C661.955 65.8286 661.813 65.4686 659.44 65.2736C658.065 65.1616 654.979 65.6906 652.583 66.4496ZM762.285 66.4026C760.274 67.1756 757.497 68.5506 756.113 69.4576C753.682 71.0496 753.586 71.0276 753.269 68.7926C752.959 66.6086 752.519 66.4786 745.441 66.4786H737.941L737.675 94.2286L737.409 121.979H745.318C751.608 121.979 754.441 121.979 754.441 121.979C754.441 120.979 754.441 112.08 754.441 103.848C754.441 87.2306 755.261 84.1566 760.407 81.4956C763.781 79.7506 770.61 79.6546 772.484 81.0016C777.441 84.5656 777.441 88.0656 777.441 103.979L777.441 121.479H785.941H793.941V100.897L793.941 80.5656L793.482 78.5656L792.482 76.5656L791.482 75.0656C787.605 68.7986 780.964 65.9026 772.237 65.3766C768.343 65.1416 764.545 65.5336 762.285 66.4026ZM363.804 78.3576C367.281 79.8106 371.44 84.3066 371.44 86.6136C371.44 87.6946 368.836 87.9786 358.94 87.9786C347.273 87.9786 346.44 87.8506 346.44 86.0556C346.44 83.6246 351.737 78.2546 354.698 77.6836C358.939 76.8656 360.513 76.9816 363.804 78.3576ZM842.128 79.6926C844.778 81.4296 846.441 84.0206 846.441 86.4126C846.441 87.7506 844.619 87.9786 833.941 87.9786C820.018 87.9786 819.371 87.5916 824.024 82.0626C828.293 76.9886 836.384 75.9296 842.128 79.6926ZM703.016 79.8736C715.588 85.5836 710.982 107.066 697.289 107.957C695.855 107.957 693.098 107.098 690.846 106.076C680.898 101.558 681.1 83.8196 691.147 79.6546C696.098 77.6016 698.094 77.6386 703.016 79.8736ZM521.44 100.545C521.44 106.169 516.691 109.979 509.678 109.979C503.353 109.979 499.461 104.857 502.691 100.785C504.487 98.5206 506.064 98.1456 514.19 98.0576C521.327 97.9796 521.44 98.0186 521.44 100.545Z" fill="white"/>
</svg>
